<svg xmlns="http://www.w3.org/2000/svg" width="85" height="85" viewBox="0 0 85 85">
  <path id="logo-arquitectura" d="M70.117,6.318,50.08,17.712,29.683,6.2,7.4,18.831V67.087L49.9,91.2,92.4,67.263V18.978h0ZM86.29,20.1,51.937,39.588V21.245L70,11ZM54,66.056,68.11,58.048V74.065L54,66.056ZM33.757,54.427l14.107-8.008V62.435ZM47.863,39.588,33.727,31.609l14.137-8.038Zm-2.186,3.445L31.69,50.982V35.112Zm6.26,19.4V46.389l14.137,8.038ZM29.683,10.793l15.934,9.3L29.653,29.136,13.51,19.979ZM11.473,64.761V23.453L27.617,32.61V55.722L47.863,67.2V85.4ZM51.937,85.4V69.5L65.924,77.45Zm36.39-20.492L72.183,74.065V71.533l.09-18.284-.09.059v-.059L54.123,43,88.357,23.571Z" transform="translate(-7.4 -6.2)" fill="#e66f43"/>
</svg>
